<?xml version="1.0" standalone="no"?><!DOCTYPE svg PUBLIC "-//W3C//DTD SVG 1.1//EN" "http://www.w3.org/Graphics/SVG/1.1/DTD/svg11.dtd"><svg t="1756472130239" class="icon" viewBox="0 0 1024 1024" version="1.1" xmlns="http://www.w3.org/2000/svg" p-id="3712" xmlns:xlink="http://www.w3.org/1999/xlink" width="200" height="200"><path d="M236.79141 223.04588c-13.474292 7.430443-38.171486 31.27257-48.842181 47.155158-5.368796 7.996028-6.524292 14.15421-3.735291 20.021694 1.649318 3.478649 60.179415 61.665747 149.977218 149.088095 71.772075 69.872197 89.665225 87.90279 92.487066 93.196175l2.656423 4.978361 0.498687 146.470593 0.498688 146.476675 2.355994 4.11478c5.373662 9.369243 15.203886 11.782404 47.959139 11.772674 33.763575-0.008514 43.660697-2.480058 48.421338-12.063372 1.834197-3.696369 1.919339-8.769602 2.397349-150.29954l0.50112-146.470594 2.24531-4.204787c3.734075-6.988923-12.923304 9.603991 159.170096-158.55221 79.017639-77.212633 80.542893-78.751267 83.284457-84.059247 5.050123-9.791303-1.0813-20.909601-24.408927-44.199523-25.74687-25.709164-37.453862-31.04512-48.769203-22.222-3.931117 3.068752-123.430016 119.270232-186.974963 181.814156-31.315141 30.826184-33.623699 32.323463-42.483308 27.51052-3.245118-1.763651-51.256558-48.168345-154.301203-149.127016-72.067638-70.61293-69.572985-68.770219-82.937809-61.400592" fill="#ffffff" p-id="3713"></path></svg>