<?xml version="1.0" standalone="no"?><!DOCTYPE svg PUBLIC "-//W3C//DTD SVG 1.1//EN" "http://www.w3.org/Graphics/SVG/1.1/DTD/svg11.dtd"><svg t="1756472033696" class="icon" viewBox="0 0 1024 1024" version="1.1" xmlns="http://www.w3.org/2000/svg" p-id="3609" xmlns:xlink="http://www.w3.org/1999/xlink" width="200" height="200"><path d="M887.90528 242.432l-57.6-156.032S-10.39872 44.757333 0.09728 484.224c0 85.888 85.12 180.778667 356.181333 161.28 120.533333-12.970667 318.208-37.717333 333.909334 16.896 15.701333 54.656-136.234667 132.608-246.186667 144.341333-109.994667 11.690667-248.746667 6.485333-318.122667 0a7959.210667 7959.210667 0 0 0 72.021334 162.517334s352.256 66.346667 645.546666-111.786667c115.285333-71.552 203.093333-175.573333 175.445334-279.552-27.477333-104.064-117.845333-165.205333-374.442667-157.354667-182.016 7.808-303.786667 23.466667-314.282667-32.469333-10.538667-55.893333 111.232-148.309333 557.738667-145.664z" fill="#ffffff" p-id="3610"></path></svg>