<?xml version="1.0" standalone="no"?><!DOCTYPE svg PUBLIC "-//W3C//DTD SVG 1.1//EN" "http://www.w3.org/Graphics/SVG/1.1/DTD/svg11.dtd"><svg t="1750366298132" class="icon" viewBox="0 0 1024 1024" version="1.1" xmlns="http://www.w3.org/2000/svg" p-id="18584" id="mx_n_1750366298132" data-spm-anchor-id="a313x.search_index.0.i8.7d813a81nZVrwk" xmlns:xlink="http://www.w3.org/1999/xlink" width="200" height="200"><path d="M951.474694 9.789652 75.270743 9.789652c-36.160301 0-65.481091 29.32079-65.481091 65.481091l0 876.203951c0 36.184384 29.32079 65.493133 65.481091 65.493133l876.203951 0c36.184384 0 65.493133-29.32079 65.493133-65.493133L1016.967827 75.270743C1016.967827 39.110442 987.647037 9.789652 951.474694 9.789652zM353.017498 68.226529c19.362559 0 35.064534 15.701976 35.064534 35.064534 0 19.362559-15.701976 35.076576-35.064534 35.076576s-35.064534-15.701976-35.064534-35.076576C317.952963 83.928504 333.654939 68.226529 353.017498 68.226529zM229.858137 68.226529c19.362559 0 35.076576 15.701976 35.076576 35.064534 0 19.362559-15.701976 35.076576-35.076576 35.076576-19.350517 0-35.064534-15.701976-35.064534-35.076576C194.805644 83.928504 210.50762 68.226529 229.858137 68.226529zM71.646284 103.291063c0-19.362559 15.701976-35.064534 35.064534-35.064534 19.350517 0 35.064534 15.701976 35.064534 35.064534 0 19.362559-15.701976 35.076576-35.064534 35.076576C87.34826 138.355597 71.646284 122.653622 71.646284 103.291063zM959.698965 927.126999c0 22.421072-18.15842 40.591533-40.579492 40.591533L116.175353 967.718532c-22.409031 0-40.579492-18.170461-40.579492-40.591533L75.595861 239.334713c0-22.409031 18.170461-40.579492 40.579492-40.579492L919.119473 198.755221c22.421072 0 40.579492 18.15842 40.579492 40.579492L959.698965 927.126999z" p-id="18585" fill="#eeb173"></path><path d="M520.657761 323.094638c-103.447601 0-187.303857 83.844214-187.303857 187.303857 0 103.43556 83.856256 187.291816 187.303857 187.291816 103.43556 0 187.291816-83.856256 187.291816-187.291816C707.949577 406.938852 624.093321 323.094638 520.657761 323.094638zM513.38476 420.58175c35.425776 0 64.132455 28.718721 64.132455 64.144497 0 35.425776-28.706679 64.144497-64.132455 64.144497s-64.144497-28.718721-64.144497-64.144497C449.240263 449.30047 477.946943 420.58175 513.38476 420.58175zM517.27413 675.052493c-49.706867 0-93.417121-25.479586-118.932832-64.060207 25.672248-37.484854 68.780433-62.109501 117.644403-62.109501 49.718909 0 93.429163 25.479586 118.932832 64.060207C609.270367 650.427846 566.150141 675.052493 517.27413 675.052493z" p-id="18586" fill="#eeb173" data-spm-anchor-id="a313x.search_index.0.i9.7d813a81nZVrwk" class=""></path><path d="M200.513264 769.517215l220.068485 0 0 62.723612-220.068485 0 0-62.723612Z" p-id="18587" fill="#eeb173"></path><path d="M460.498965 769.517215l220.068485 0 0 62.723612-220.068485 0 0-62.723612Z" p-id="18588" fill="#eeb173"></path><path d="M706.817686 769.517215l127.686924 0 0 62.723612-127.686924 0 0-62.723612Z" p-id="18589" fill="#eeb173"></path></svg>